#N canvas 98 160 1251 246 10;
#X obj 166 31 r pepper_capTouch;
#X obj 166 52 unpack 0 0 0 0 0 0 0 0 0 0 0 0, f 164;
#X obj 166 79 s brass_1;
#X obj 254 79 s brass_2;
#X obj 344 79 s brass_3;
#X obj 433 79 s brass_4;
#X obj 522 79 s brass_5;
#X obj 611 79 s brass_6;
#X obj 701 79 s brass_7;
#X obj 791 79 s slider_1;
#X obj 881 79 s slider_2;
#X obj 968 79 s slider_3;
#X obj 1058 78 s xAxis;
#X obj 1148 78 s yAxis;
#X obj 44 107 list;
#X obj 44 62 loadbang;
#X obj 44 132 print capTouch;
#X obj 44 84 metro 400;
#X connect 0 0 1 0;
#X connect 0 0 14 1;
#X connect 1 0 2 0;
#X connect 1 1 3 0;
#X connect 1 2 4 0;
#X connect 1 3 5 0;
#X connect 1 4 6 0;
#X connect 1 5 7 0;
#X connect 1 6 8 0;
#X connect 1 7 9 0;
#X connect 1 8 10 0;
#X connect 1 9 11 0;
#X connect 1 10 12 0;
#X connect 1 11 13 0;
#X connect 14 0 16 0;
#X connect 15 0 17 0;
#X connect 17 0 14 0;
