#N canvas 79 22 1010 764 10;
#X obj 27 112 adc~ 3 4 5 6 7 8 9 10, f 92;
#X text 595 112 Analog inputs;
#X text 595 252 Analog outputs;
#X obj 27 252 dac~ 3 4 5 6 7 8 9 10, f 92;
#X obj 707 112 adc~ 1 2, f 11;
#X obj 707 252 dac~ 1 2, f 11;
#X text 805 112 Audio inputs;
#X text 805 252 Audio outputs;
#X obj 27 467 led-bargraph, f 60;
#X obj 27 356 loadbang;
#X obj 27 398 f;
#X obj 56 398 + 1;
#X obj 27 442 flasher, f 60;
#X obj 475 373 buttons, f 21;
#X text 119 385 Flash LEDs in sequence;
#X text 615 373 Read from both buttons;
#X obj 475 400 print Button 1:;
#X obj 598 399 print Button 2:;
#X obj 804 203 osc~ 440;
#X text 874 202 test tone;
#X obj 27 377 metro 150;
#X obj 27 419 % 10;
#X obj 477 463 bela_scope~;
#X text 585 463 Bela scope;
#X obj 31 34 initialise_digitals;
#X text 192 34 Initialise LEDs \, buttons and trigger inputs;
#X connect 0 0 3 0;
#X connect 0 1 3 1;
#X connect 0 2 3 2;
#X connect 0 3 3 3;
#X connect 0 4 3 4;
#X connect 0 5 3 5;
#X connect 0 6 3 6;
#X connect 0 7 3 7;
#X connect 4 0 5 0;
#X connect 4 1 5 1;
#X connect 9 0 20 0;
#X connect 10 0 11 0;
#X connect 10 0 21 0;
#X connect 11 0 10 1;
#X connect 12 0 8 0;
#X connect 12 1 8 1;
#X connect 12 2 8 2;
#X connect 12 3 8 3;
#X connect 12 4 8 4;
#X connect 12 5 8 5;
#X connect 12 6 8 6;
#X connect 12 7 8 7;
#X connect 12 8 8 8;
#X connect 12 9 8 9;
#X connect 13 0 16 0;
#X connect 13 1 17 0;
#X connect 18 0 5 1;
#X connect 18 0 5 0;
#X connect 20 0 10 0;
#X connect 21 0 12 0;
