#N canvas 0 22 1440 856 10;
#X obj 1002 610 s bela_setDigital;
#X obj 1002 554 loadbang;
#X obj 1002 691 s bela_setDigital;
#X obj 1002 644 loadbang;
#X msg 1002 666 in 25 \, in 26;
#X obj 1002 771 s bela_setDigital;
#X obj 1002 724 loadbang;
#X msg 1002 746 in 22 \, in 20 \, in 24 \, in 23;
#X text 1131 665 Initialise the buttons;
#X text 1201 745 Initialise the digital inputs;
#X obj 27 322 adc~ 3 4 5 6 7 8 9 10, f 92;
#X text 595 322 Analog inputs;
#X text 595 462 Analog outputs;
#X obj 27 462 dac~ 3 4 5 6 7 8 9 10, f 92;
#X obj 27 672 led-bargraph, f 60;
#X obj 27 556 loadbang;
#X obj 27 598 f;
#X obj 56 598 + 1;
#X obj 27 619 % 10;
#X obj 27 647 flasher, f 60;
#X obj 475 583 buttons, f 21;
#X text 119 585 Flash LEDs in sequence;
#X obj 27 577 metro 50;
#X text 615 583 Read from both buttons;
#X obj 475 610 print Button 1:;
#X obj 598 609 print Button 2:;
#X obj 775 92 phasor~ 2000;
#X obj 775 133 expr~ $v1 < $v2;
#X text 887 133 <<< PWM signal with variable duty cycle;
#X msg 1002 576 out 17 ~ \, out 18 ~ \, out 21 ~ \, out 13 ~ \, out
14 ~ \, out 11 ~ \, out 12 ~ \, out 15 ~ \, out 16 ~ \, out 19 ~,
f 79;
#X text 1499 576 Initialise the LED pins at signal rate;
#X obj 775 252 phasor~ 2000;
#X obj 775 293 expr~ $v1 < $v2;
#X text 887 293 <<< PWM signal with variable duty cycle;
#X obj 862 85 adc~ 3;
#X obj 862 109 *~ 2;
#X obj 862 269 *~ 2;
#X obj 855 616 adc~ 1 2;
#X obj 855 646 dac~ 1 2;
#X obj 534 678 dac~ 27 28 29 30;
#X obj 1145 92 phasor~ 2000;
#X obj 1145 133 expr~ $v1 < $v2;
#X text 1257 133 <<< PWM signal with variable duty cycle;
#X obj 1145 252 phasor~ 2000;
#X obj 1145 293 expr~ $v1 < $v2;
#X text 1257 293 <<< PWM signal with variable duty cycle;
#X obj 1232 109 *~ 2;
#X obj 1232 269 *~ 2;
#X obj 775 402 phasor~ 2000;
#X obj 775 443 expr~ $v1 < $v2;
#X text 887 443 <<< PWM signal with variable duty cycle;
#X obj 862 419 *~ 2;
#X obj 1232 85 adc~ 4;
#X obj 862 245 adc~ 5;
#X obj 1232 245 adc~ 6;
#X obj 862 395 adc~ 7;
#X obj 775 198 dac~ 17 18;
#X obj 1145 198 dac~ 21 13;
#X obj 775 358 dac~ 14 11;
#X obj 1145 358 dac~ 12 15;
#X obj 775 508 dac~ 16 19;
#X text 37 43 PEPPER;
#X text 37 63 LED Bargraph shows the first 5 CV inputs;
#X connect 1 0 29 0;
#X connect 3 0 4 0;
#X connect 4 0 2 0;
#X connect 6 0 7 0;
#X connect 7 0 5 0;
#X connect 10 0 13 0;
#X connect 10 1 13 1;
#X connect 10 2 13 2;
#X connect 10 3 13 3;
#X connect 10 4 13 4;
#X connect 10 5 13 5;
#X connect 10 6 13 6;
#X connect 10 7 13 7;
#X connect 15 0 22 0;
#X connect 16 0 17 0;
#X connect 16 0 18 0;
#X connect 17 0 16 1;
#X connect 19 0 14 0;
#X connect 19 1 14 1;
#X connect 19 2 14 2;
#X connect 19 3 14 3;
#X connect 19 4 14 4;
#X connect 19 5 14 5;
#X connect 19 6 14 6;
#X connect 19 7 14 7;
#X connect 19 8 14 8;
#X connect 19 9 14 9;
#X connect 20 0 24 0;
#X connect 20 1 25 0;
#X connect 22 0 16 0;
#X connect 26 0 27 0;
#X connect 27 0 56 0;
#X connect 27 0 56 1;
#X connect 29 0 0 0;
#X connect 31 0 32 0;
#X connect 32 0 58 0;
#X connect 32 0 58 1;
#X connect 34 0 35 0;
#X connect 35 0 27 1;
#X connect 36 0 32 1;
#X connect 37 0 38 0;
#X connect 37 1 38 1;
#X connect 40 0 41 0;
#X connect 41 0 57 0;
#X connect 41 0 57 1;
#X connect 43 0 44 0;
#X connect 44 0 59 0;
#X connect 44 0 59 1;
#X connect 46 0 41 1;
#X connect 47 0 44 1;
#X connect 48 0 49 0;
#X connect 49 0 60 0;
#X connect 49 0 60 1;
#X connect 51 0 49 1;
#X connect 52 0 46 0;
#X connect 53 0 36 0;
#X connect 54 0 47 0;
#X connect 55 0 51 0;
